<?xml version="1.0" encoding="utf-8"?>
<!-- Generator: Adobe Illustrator 19.1.0, SVG Export Plug-In . SVG Version: 6.00 Build 0)  -->
<svg version="1.1" id="Capa_1" xmlns="http://www.w3.org/2000/svg" xmlns:xlink="http://www.w3.org/1999/xlink" x="0px" y="0px"
	 viewBox="-164 42.3 512 512" style="enable-background:new -164 42.3 512 512;" xml:space="preserve">
<style type="text/css">
	.st0{fill:#D80027;}
	.st1{fill:#91DC5A;}
</style>
<g>
	<path class="st0" d="M237.3,311.1v-76.7c0.4-58.5-39-97.3-72.8-112.8c-9.7-4.4-19.7-7.8-29.8-10.4v-4.9c0-23.5-19.1-42.7-42.7-42.7
		s-42.7,19.1-42.7,42.7v5.6c-9.1,2.5-18.1,5.7-26.8,9.7c-37.4,17.2-75.2,58.7-75.6,112.6v76.8c0,54.5-19.3,101.3-57.2,139
		c-2.3,2.3-3.1,5.6-2.1,8.6s3.5,5.3,6.7,5.8l81,14c15.1,2.6,29,4.7,42.2,6.5C32.4,514.2,61.6,533,93.6,533c32,0,61.2-18.7,76.1-47.9
		c13.2-1.7,27-3.9,42-6.5l81-14c3.1-0.5,5.7-2.8,6.7-5.8c1-3,0.1-6.4-2.1-8.6C257.4,410.6,237.3,363.8,237.3,311.1z M66.4,106.3
		c0-14.1,11.5-25.6,25.6-25.6s25.6,11.5,25.6,25.6v1.6c-17-2.4-34.3-2.3-51.2,0.4V106.3z M93.6,515.9c-21.6,0-41.8-10.7-54.8-28.3
		c19.1,2,36.9,3,54.7,3c17.9,0,35.7-1,54.9-3C135.4,505.1,115.2,515.9,93.6,515.9z M208.7,461.7c-16.4,2.8-31.4,5.1-45.6,6.9
		c0,0,0,0-0.1,0c-6.3,0.8-12.3,1.5-18.3,2.1c-0.1,0-0.1,0-0.1,0c-5.5,0.5-10.8,1-16.1,1.4c-1,0.1-2,0.1-3,0.2
		c-4.6,0.3-9.1,0.5-13.6,0.7c-0.9,0-1.8,0.1-2.7,0.1c-10.6,0.4-21.1,0.4-31.7,0c-0.9,0-1.9-0.1-2.9-0.1c-4.4-0.2-8.9-0.4-13.4-0.7
		c-1.1-0.1-2.1-0.1-3.2-0.2c-5.1-0.4-10.3-0.8-15.6-1.3c-0.2,0-0.4,0-0.6-0.1c-5.9-0.6-11.9-1.3-18.1-2.1c0,0-0.1,0-0.1,0
		c-14.2-1.8-29.3-4.1-45.7-6.9l-65.4-11.3c34-38.9,51.2-85.7,51.2-139.3v-76.7c0.3-46.4,33.2-82.2,65.6-97.2
		c9.7-4.4,19.7-7.8,29.8-10.1c0.1,0,0.2,0,0.3,0c21-4.7,43.4-4.9,64.7-0.6c0.1,0,0.2,0,0.3,0c11.1,2.3,22.1,5.8,32.6,10.7
		c31.5,14.4,63.1,50,62.8,97.2v76.8c0,51.5,18.6,99.4,53.9,139.4L208.7,461.7z"/>
	<path class="st0" d="M146.8,160.4c-33.1-15.1-73.6-15.1-106.4,0c-18.7,8.6-50.5,33.9-50.8,73.8c0,4.7,3.8,8.6,8.5,8.6
		c0,0,0,0,0.1,0c4.7,0,8.5-3.8,8.5-8.5c0.2-31.4,25.8-51.5,40.8-58.5c28.4-13.1,63.5-13.1,92.2,0c4.3,2,9.4,0.1,11.3-4.2
		C152.9,167.4,151,162.3,146.8,160.4z"/>
	<path class="st0" d="M-123,236.8c-3.3-3.3-8.7-3.3-12.1,0c-18.6,18.6-28.9,43.5-28.9,69.9s10.3,51.3,28.9,69.9
		c1.7,1.7,3.8,2.5,6,2.5c2.2,0,4.4-0.8,6-2.5c3.3-3.3,3.3-8.7,0-12.1c-15.4-15.4-23.9-36-23.9-57.8s8.5-42.4,23.9-57.8
		C-119.7,245.5-119.7,240.1-123,236.8z"/>
	<path class="st0" d="M-93.1,359.6c2.2,0,4.4-0.8,6-2.5c3.3-3.3,3.3-8.7,0-12.1c-21.8-21.8-21.8-57.3,0-79.2c3.3-3.3,3.3-8.7,0-12.1
		c-3.3-3.3-8.7-3.3-12.1,0c-28.5,28.5-28.5,74.8,0,103.3C-97.5,358.8-95.3,359.6-93.1,359.6z"/>
	<path class="st0" d="M319.1,236.8c-3.3-3.3-8.7-3.3-12.1,0c-3.3,3.3-3.3,8.7,0,12.1c15.4,15.4,23.9,36,23.9,57.8
		s-8.5,42.4-23.9,57.8c-3.3,3.3-3.3,8.7,0,12.1c1.7,1.7,3.8,2.5,6,2.5c2.2,0,4.4-0.8,6-2.5c18.6-18.6,28.9-43.5,28.9-69.9
		C348,280.2,337.7,255.4,319.1,236.8z"/>
	<path class="st0" d="M271.1,253.8c-3.3,3.3-3.3,8.7,0,12.1c21.8,21.8,21.8,57.3,0,79.2c-3.3,3.3-3.3,8.7,0,12.1
		c1.7,1.7,3.8,2.5,6,2.5s4.4-0.8,6-2.5c28.5-28.5,28.5-74.8,0-103.3C279.8,250.5,274.4,250.5,271.1,253.8z"/>
</g>
<g>
	<path id="XMLID_49_" class="st1" d="M122.7,433.2v7.5c0,6-4.4,10.9-10.1,11.7l-1.8,6.8c-1,3.7-4.3,6.3-8.2,6.3H84.4
		c-3.8,0-7.2-2.6-8.2-6.3l-1.8-6.8c-5.7-0.9-10.1-5.8-10.1-11.8v-7.5c0-4,3.2-7.2,7.2-7.2h44C119.5,425.9,122.7,429.2,122.7,433.2z
		 M156.6,332.4c0,17-6.7,32.4-17.7,43.8c-8.3,8.6-13.7,19.6-15.5,31.4c-0.8,5.1-5.2,8.8-10.3,8.8H74c-5.1,0-9.5-3.7-10.3-8.7
		c-1.8-11.7-7.3-22.9-15.6-31.5c-10.7-11.2-17.4-26.3-17.6-43c-0.4-35.1,27.5-63.5,62.6-63.7C128.2,269.1,156.6,297.4,156.6,332.4z
		 M100.7,294.2c0-3.9-3.2-7.1-7.1-7.1c-25.1,0-45.5,20.4-45.5,45.5c0,3.9,3.2,7.1,7.1,7.1c3.9,0,7.1-3.2,7.1-7.1
		c0-17.3,14.1-31.3,31.3-31.3C97.5,301.3,100.7,298.1,100.7,294.2z M93.6,248.6c3.9,0,7.1-3.2,7.1-7.1v-24.9c0-3.9-3.2-7.1-7.1-7.1
		s-7.1,3.2-7.1,7.1v24.9C86.5,245.5,89.7,248.6,93.6,248.6z M9.9,332.3c0-3.9-3.2-7.1-7.1-7.1h-24.9c-3.9,0-7.1,3.2-7.1,7.1
		c0,3.9,3.2,7.1,7.1,7.1H2.8C6.7,339.4,9.9,336.3,9.9,332.3z M209.3,325.2h-24.9c-3.9,0-7.1,3.2-7.1,7.1c0,3.9,3.2,7.1,7.1,7.1h24.9
		c3.9,0,7.1-3.2,7.1-7.1C216.4,328.4,213.2,325.2,209.3,325.2z M24.4,391.5L6.7,409.1c-2.8,2.8-2.8,7.3,0,10.1
		c1.4,1.4,3.2,2.1,5,2.1s3.6-0.7,5-2.1l17.6-17.6c2.8-2.8,2.8-7.3,0-10.1C31.6,388.7,27.1,388.7,24.4,391.5z M157.8,275.2
		c1.8,0,3.6-0.7,5-2.1l17.6-17.6c2.8-2.8,2.8-7.3,0-10.1s-7.3-2.8-10.1,0l-17.6,17.6c-2.8,2.8-2.8,7.3,0,10.1
		C154.1,274.5,155.9,275.2,157.8,275.2z M24.4,273.1c1.4,1.4,3.2,2.1,5,2.1s3.6-0.7,5-2.1c2.8-2.8,2.8-7.3,0-10.1l-17.6-17.6
		c-2.8-2.8-7.3-2.8-10.1,0c-2.8,2.8-2.8,7.3,0,10.1L24.4,273.1z M162.8,391.5c-2.8-2.8-7.3-2.8-10.1,0c-2.8,2.8-2.8,7.3,0,10.1
		l17.6,17.6c1.4,1.4,3.2,2.1,5,2.1s3.6-0.7,5-2.1c2.8-2.8,2.8-7.3,0-10.1L162.8,391.5z"/>
</g>
</svg>
