<?xml version="1.0" encoding="utf-8"?>
<!-- Generator: Adobe Illustrator 19.1.0, SVG Export Plug-In . SVG Version: 6.00 Build 0)  -->
<svg version="1.1" id="Слой_1" xmlns="http://www.w3.org/2000/svg" xmlns:xlink="http://www.w3.org/1999/xlink" x="0px" y="0px"
	 viewBox="-388 266.3 64 64" style="enable-background:new -388 266.3 64 64;" xml:space="preserve">
<style type="text/css">
	.st0{fill:#FFF0C2;}
	.st1{fill:#E5B225;}
	.st2{fill:#E5BA3C;}
	.st3{fill:#997F37;}
	.st4{fill:#FFFFFF;}
</style>
<g id="row_4">
	<g id="kitchen_x5F_table">
		<g>
			<path class="st0" d="M-361.6,281.6c-3.6,0.9-7.3,0.9-10.9,0c1.6,5.6,2.5,11.6,2.5,17.7c0,0.3,0,0.7,0,1h6c0-0.3,0-0.7,0-1
				C-364,293.2-363.1,287.2-361.6,281.6z"/>
			<g>
				<path class="st1" d="M-361,304.3v-3h-12v3C-369.1,303.3-364.9,303.3-361,304.3z"/>
				<path class="st1" d="M-361.2,281.5l-0.7,17.8h-10.2l-0.7-17.8c-0.2-0.1-0.8-0.2-2-0.7l0.8,19.5h14l0.8-19.5
					C-360.4,281.3-360.9,281.4-361.2,281.5z"/>
			</g>
			<path class="st2" d="M-361.1,276.3h-11.8c-1.1,0-2,0.9-2,2.1l0.1,2.5c5,2,10.6,2,15.6,0l0.1-2.5
				C-359,277.2-359.9,276.3-361.1,276.3z"/>
			<g>
				<polygon class="st3" points="-373,319.3 -374,319.3 -374,301.3 -372,301.3 				"/>
				<polygon class="st3" points="-361,319.3 -360,319.3 -360,301.3 -362,301.3 				"/>
			</g>
			<path class="st4" d="M-375,301.3c0-1.1,0.9-2,2-2h12c1.1,0,2,0.9,2,2H-375z"/>
		</g>
		<g>
			<path class="st0" d="M-339.6,281.6c-3.6,0.9-7.3,0.9-10.9,0c1.6,5.6,2.5,11.6,2.5,17.7c0,0.3,0,0.7,0,1h6c0-0.3,0-0.7,0-1
				C-342,293.2-341.1,287.2-339.6,281.6z"/>
			<g>
				<path class="st1" d="M-339,304.3v-3h-12v3C-347.1,303.3-342.9,303.3-339,304.3z"/>
				<path class="st1" d="M-339.2,281.5l-0.7,17.8h-10.2l-0.7-17.8c-0.2-0.1-0.8-0.2-2-0.7l0.8,19.5h14l0.8-19.5
					C-338.4,281.3-338.9,281.4-339.2,281.5z"/>
			</g>
			<path class="st2" d="M-339.1,276.3h-11.8c-1.1,0-2,0.9-2,2.1l0.1,2.5c5,2,10.6,2,15.6,0l0.1-2.5
				C-337,277.2-337.9,276.3-339.1,276.3z"/>
			<g>
				<polygon class="st3" points="-351,319.3 -352,319.3 -352,301.3 -350,301.3 				"/>
				<polygon class="st3" points="-339,319.3 -338,319.3 -338,301.3 -340,301.3 				"/>
			</g>
			<path class="st4" d="M-353,301.3c0-1.1,0.9-2,2-2h12c1.1,0,2,0.9,2,2H-353z"/>
		</g>
		<rect x="-385" y="290.3" class="st2" width="58" height="2"/>
		<rect x="-381" y="292.3" class="st1" width="50" height="4"/>
		<rect x="-365" y="292.3" class="st3" width="18" height="3"/>
		<g>
			<polygon class="st3" points="-379,319.3 -381,319.3 -381,292.3 -378,292.3 			"/>
			<polygon class="st3" points="-333,319.3 -331,319.3 -331,292.3 -334,292.3 			"/>
		</g>
	</g>
</g>
</svg>
